<svg width="147" height="147" viewBox="0 0 147 147" fill="none" xmlns="http://www.w3.org/2000/svg">
<rect width="147" height="147" rx="20" fill="#5598EA"/>
<path d="M47.499 40.7637H60.6387V87.4775C60.6387 94.8896 58.1924 100.588 53.2998 104.572C49.4912 107.736 45.1992 109.318 40.4238 109.318C33.5098 109.318 27.0938 105.671 21.1758 98.376L29.7451 90.7734C32.001 93.6152 33.8467 95.5049 35.2822 96.4424C36.7471 97.3506 38.2119 97.8047 39.6768 97.8047C41.8447 97.8047 43.5879 97.0283 44.9062 95.4756C46.6348 93.3955 47.499 90.7295 47.499 87.4775V40.7637ZM82.3072 89.1914C84.5338 92.6191 86.7164 95.0068 88.8551 96.3545C91.023 97.7021 93.5719 98.376 96.5016 98.376C100.017 98.376 102.756 97.5117 104.719 95.7832C106.682 94.0254 107.664 91.96 107.664 89.5869C107.664 87.5068 106.887 85.6758 105.335 84.0938C103.753 82.5117 100.222 80.9883 94.7438 79.5234C87.273 77.5605 81.9264 75.1582 78.7037 72.3164C74.69 68.7422 72.6832 64.3184 72.6832 59.0449C72.6832 53.3906 74.69 48.7178 78.7037 45.0264C82.7174 41.3057 88.2252 39.4453 95.2271 39.4453C99.2115 39.4453 102.756 40.1191 105.862 41.4668C108.997 42.7852 111.648 44.4844 113.816 46.5645C115.222 47.9414 116.629 49.8311 118.035 52.2334L106.961 56.7598C105.086 54.0938 103.167 52.1455 101.204 50.915C99.2408 49.6846 97.0582 49.0693 94.6559 49.0693C91.6969 49.0693 89.3238 49.9043 87.5367 51.5742C85.7789 53.2148 84.9 55.207 84.9 57.5508C84.9 59.4258 85.6324 61.0371 87.0973 62.3848C88.5328 63.7324 92.1363 65.124 97.9078 66.5596C103.679 67.9951 108.045 69.665 111.004 71.5693C113.992 73.4736 116.218 75.9492 117.683 78.9961C119.177 82.043 119.924 85.1777 119.924 88.4004C119.924 91.7988 118.972 95.2119 117.068 98.6396C115.164 102.067 112.337 104.704 108.587 106.55C104.837 108.396 100.53 109.318 95.6666 109.318C91.067 109.318 87.068 108.557 83.6695 107.033C80.3004 105.48 77.4439 103.4 75.1002 100.793C73.5768 99.123 72.0387 96.7939 70.4859 93.8057L82.3072 89.1914Z" fill="white"/>
</svg>
